<svg width="104" height="56" viewBox="0 0 104 56" fill="none" xmlns="http://www.w3.org/2000/svg">
<path fill-rule="evenodd" clip-rule="evenodd" d="M35.1117 37.438C36.9274 35.848 38.1145 33.762 38.671 31.178H56.6072C55.7844 38.564 52.8057 44.548 47.6751 49.13C42.5425 53.71 36.2247 56 28.722 56C23.251 56 18.3246 54.8 13.9426 52.4C9.56264 49.998 6.14155 46.66 3.68533 42.388C1.22911 38.116 0 33.318 0 28C0 22.68 1.22911 17.884 3.68533 13.612C6.14155 9.34 9.56264 6 13.9426 3.6C18.3246 1.2 23.251 0 28.722 0C36.1026 0 42.3383 2.21 47.4209 6.63C52.5055 11.05 55.5062 16.844 56.425 24.01H38.743C37.9923 21.646 36.7092 19.744 34.8935 18.304C33.0799 16.864 31.0461 16.144 28.792 16.144C25.6952 16.144 23.195 17.232 21.2952 19.412C19.3935 21.592 18.4447 24.454 18.4447 28C18.4447 31.52 19.4015 34.372 21.3133 36.55C23.227 38.73 25.7172 39.82 28.792 39.82C31.1902 39.82 33.2961 39.026 35.1117 37.438ZM98.7733 22.878C102.256 26.216 104 30.53 104 35.822C104 41.87 101.994 46.744 97.9846 50.448C93.9749 54.148 88.6882 56 82.1302 56C75.6444 56 70.3736 54.142 66.3119 50.428C62.2483 46.712 60.2204 41.896 60.2204 35.978C60.2204 32.746 60.7769 29.494 61.8919 26.222C63.0069 22.95 64.7285 19.372 67.0626 15.488L75.3081 1.794L92.7278 1.79L82.975 17.95C83.9479 17.898 84.7166 17.872 85.2811 17.872C90.7901 17.872 95.2861 19.542 98.7733 22.878ZM87.0106 40.788C88.2658 39.512 88.8923 37.856 88.8923 35.822C88.8923 33.788 88.2658 32.12 87.0106 30.816C85.7555 29.512 84.128 28.862 82.1282 28.862C80.1304 28.862 78.503 29.512 77.2478 30.816C75.9927 32.12 75.3641 33.788 75.3641 35.822C75.3641 37.854 75.9907 39.512 77.2478 40.788C78.503 42.066 80.1304 42.704 82.1282 42.704C84.128 42.704 85.7555 42.064 87.0126 40.788H87.0106Z" fill="#242424"/>
</svg>
